<svg width="24" height="20" viewBox="0 0 24 20" fill="none" xmlns="http://www.w3.org/2000/svg">
<g id="Group">
<path id="Vector" d="M6.10137 11.1918C6.45701 11.1918 6.84743 10.9975 7.07891 10.7163L7.72146 12.8633C7.86274 13.3349 8.21485 13.3933 8.31945 13.3998C8.42406 13.4055 8.78051 13.393 8.98021 12.9423L10.3897 9.75076L12.0522 15.2924C12.1935 15.7627 12.5451 15.8217 12.6502 15.8285C12.6592 15.829 12.6709 15.8298 12.6847 15.8298C12.8173 15.8298 13.1289 15.7826 13.3126 15.3753L15.1688 11.2505C15.1843 11.2285 15.2335 11.197 15.2601 11.1915H17.5072C17.7969 11.1915 18.0321 10.9565 18.0321 10.6666C18.0321 10.3767 17.7971 10.142 17.5072 10.142H15.2557C14.827 10.142 14.3888 10.4254 14.2135 10.8155L12.7687 14.0261L11.1013 8.47055C10.9606 7.99944 10.6074 7.94129 10.5028 7.9345C10.3982 7.92825 10.0417 7.94184 9.84256 8.39203L8.43356 11.5822L7.8929 9.77657C7.80324 9.47445 7.58779 9.27258 7.31827 9.23617C7.05718 9.20085 6.80559 9.32801 6.63796 9.57633L6.28449 10.0246L6.26955 10.0493C6.24238 10.0868 6.14647 10.1395 6.10137 10.1428H0.436336V10.1507C0.189097 10.1925 0 10.4077 0 10.6672C0 10.9269 0.188825 11.1418 0.436064 11.1839V11.1918H6.10137Z" fill="#109615"/>
<path id="Vector_2" d="M21.3209 1.80213C20.1589 0.640376 18.6135 0 16.97 0C15.3266 0 13.782 0.640104 12.6192 1.80213L11.8242 2.59764L11.0287 1.80213C9.86722 0.640376 8.32184 0 6.67784 0C5.03438 0 3.48927 0.640104 2.32752 1.80213C1.16495 2.96442 0.525391 4.5098 0.525391 6.15299C0.525391 7.30088 0.837292 8.40042 1.42224 9.35541H2.70463C1.97296 8.45068 1.57548 7.33294 1.57548 6.15326C1.57548 4.78991 2.10555 3.50862 3.06978 2.54493C4.03401 1.5807 5.31503 1.05036 6.67811 1.05036C8.04118 1.05036 9.32275 1.5807 10.2864 2.54493L11.8242 4.08189L13.3609 2.54493C14.3251 1.5807 15.6067 1.05036 16.9698 1.05036C18.3328 1.05036 19.6144 1.5807 20.5781 2.54493C21.5423 3.50862 22.0729 4.79019 22.0729 6.15326C22.0729 7.51634 21.5423 8.7979 20.5776 9.76186L11.8245 18.516L5.28678 11.9791H3.80253L11.8242 20L21.3209 10.5036C22.4829 9.34183 23.123 7.79645 23.123 6.15299C23.123 4.50953 22.4829 2.96442 21.3209 1.80213Z" fill="#109615"/>
</g>
</svg>
