<svg width="24" height="21" viewBox="0 0 24 21" fill="none" xmlns="http://www.w3.org/2000/svg">
<g id="Group 31">
<g id="Group">
<path id="Vector" d="M5.68118 0C5.31427 0 4.95335 0.129972 4.6986 0.384487C4.44385 0.639002 4.31411 0.999502 4.31411 1.36706V3.28095H2.94705C2.66074 3.28098 2.40025 3.54147 2.40022 3.82778V8.20239C1.92997 8.20238 1.44795 8.20239 0.981893 8.20239C0.713083 8.22772 0.485168 8.47921 0.486333 8.74921V14.2175C0.486361 14.5038 0.746849 14.7643 1.03316 14.7643H7.86848C9.67667 14.7643 11.1494 13.2915 11.1494 11.4833C11.1494 9.67515 9.67667 8.20239 7.86848 8.20239H3.49387V4.37461H21.5391C21.9357 4.37461 22.3111 4.27085 22.6328 4.08411V9.02263C22.6287 9.31152 22.8907 9.57724 23.1796 9.57724C23.4685 9.57724 23.7305 9.31152 23.7264 9.02263V2.1873C23.7264 2.16999 23.7268 2.15326 23.7264 2.13604C23.7265 2.13034 23.7265 2.12465 23.7264 2.11895C23.6896 0.948192 22.7183 0 21.5391 0H5.68118ZM5.68118 1.09365H21.5391C22.1545 1.09365 22.6328 1.57196 22.6328 2.1873C22.6328 2.80264 22.1545 3.28095 21.5391 3.28095H5.40777V1.36706C5.40777 1.23884 5.44443 1.18512 5.47612 1.15346C5.50781 1.1218 5.55335 1.09365 5.68118 1.09365ZM1.57998 9.29604H7.86848C9.0897 9.29604 10.0558 10.2621 10.0558 11.4833C10.0558 12.7046 9.08971 13.6706 7.86848 13.6706H1.57998V9.29604ZM8.14189 10.6631C7.69538 10.6631 7.32166 11.0368 7.32166 11.4833C7.32166 11.9299 7.69538 12.3036 8.14189 12.3036C8.58841 12.3036 8.96213 11.9299 8.96213 11.4833C8.96213 11.0368 8.58841 10.6631 8.14189 10.6631ZM23.1711 10.6631C22.8847 10.6676 22.6283 10.9322 22.6328 11.2185V11.4833C22.6287 11.7722 22.8907 12.038 23.1796 12.038C23.4685 12.038 23.7305 11.7722 23.7264 11.4833V11.2185C23.731 10.9265 23.4631 10.6585 23.1711 10.6631ZM19.8986 12.0302C17.6401 12.0302 15.7975 13.8728 15.7975 16.1314C15.7975 18.3899 17.6401 20.2326 19.8986 20.2326C22.1572 20.2326 23.9998 18.3899 23.9998 16.1314C23.9998 13.8728 22.1572 12.0302 19.8986 12.0302ZM19.8986 13.1238C21.5661 13.1238 22.9062 14.4639 22.9062 16.1314C22.9062 17.7989 21.5661 19.1389 19.8986 19.1389C18.2312 19.1389 16.8911 17.7989 16.8911 16.1314C16.8911 14.4639 18.2312 13.1238 19.8986 13.1238ZM18.4718 14.4823C18.2647 14.5025 18.0758 14.6515 18.0078 14.8481C17.9399 15.0447 17.9966 15.2785 18.1471 15.4222L20.061 17.3361C20.2819 17.5539 20.6942 17.5238 20.8812 17.2763L21.7015 16.1826C21.8937 15.9564 21.8511 15.5709 21.6142 15.3921C21.3773 15.2132 20.9949 15.2779 20.83 15.5247L20.3857 16.1143L18.9161 14.6447C18.8022 14.528 18.6341 14.4666 18.4718 14.4823ZM2.88724 15.8494C2.61854 15.8789 2.39441 16.1345 2.40022 16.4048V19.1389C2.40025 19.4252 2.66074 19.6857 2.94705 19.6857H14.9772C15.2661 19.6898 15.5318 19.4278 15.5318 19.1389C15.5318 18.85 15.2661 18.588 14.9772 18.5921H3.49387V16.4048C3.50056 16.0946 3.19565 15.8154 2.88724 15.8494Z" fill="#109615"/>
</g>
</g>
</svg>
