<svg width="19" height="25" viewBox="0 0 19 25" fill="none" xmlns="http://www.w3.org/2000/svg">
<path id="Vector" d="M5.52579 17.5478C5.52579 17.8452 5.2911 18.0863 5.00162 18.0863H3.01457C2.72511 18.0863 2.49042 17.8452 2.49042 17.5478C2.49042 17.2504 2.72511 17.0093 3.01457 17.0093H5.00162C5.2911 17.0093 5.52579 17.2504 5.52579 17.5478ZM10.1955 7.36883H12.1827C12.4721 7.36883 12.7068 7.12772 12.7068 6.83035C12.7068 6.53295 12.4721 6.29184 12.1827 6.29184H10.1955C9.90606 6.29184 9.67137 6.53295 9.67137 6.83035C9.67137 7.12772 9.90606 7.36883 10.1955 7.36883ZM10.1955 9.64953H12.1827C12.4721 9.64953 12.7068 9.40868 12.7068 9.11104C12.7068 8.81365 12.4721 8.57254 12.1827 8.57254H10.1955C9.90606 8.57254 9.67137 8.81365 9.67137 9.11104C9.67137 9.40868 9.90606 9.64953 10.1955 9.64953ZM6.60888 10.8298H3.01457C2.72511 10.8298 2.49042 11.0709 2.49042 11.3683C2.49042 11.6657 2.72511 11.9068 3.01457 11.9068H6.60888C6.89834 11.9068 7.13303 11.6657 7.13303 11.3683C7.13303 11.0709 6.89834 10.8298 6.60888 10.8298ZM8.80253 3.57366H3.01457C2.72511 3.57366 2.49042 3.81476 2.49042 4.11216C2.49042 4.40954 2.72511 4.65065 3.01457 4.65065H8.80253C9.09199 4.65065 9.32668 4.40954 9.32668 4.11216C9.32668 3.81476 9.09199 3.57366 8.80253 3.57366ZM6.60888 8.57254H3.01457C2.72511 8.57254 2.49042 8.81365 2.49042 9.11104C2.49042 9.40868 2.72511 9.64953 3.01457 9.64953H6.60888C6.89834 9.64953 7.13303 9.40868 7.13303 9.11104C7.13303 8.81365 6.89834 8.57254 6.60888 8.57254ZM6.60888 6.29184H3.01457C2.72511 6.29184 2.49042 6.53295 2.49042 6.83035C2.49042 7.12772 2.72511 7.36883 3.01457 7.36883H6.60888C6.89834 7.36883 7.13303 7.12772 7.13303 6.83035C7.13303 6.53295 6.89834 6.29184 6.60888 6.29184ZM13.9071 19.0596C13.9071 19.9004 13.9071 20.7142 13.9071 21.5366C13.1047 21.5366 12.3126 21.5366 11.5048 21.5366C11.5048 20.7221 11.5048 19.9046 11.5048 19.0711C10.6936 19.0711 9.89784 19.0711 9.09234 19.0711C9.09234 18.2376 9.09234 17.4202 9.09234 16.5921C9.88839 16.5921 10.6806 16.5921 11.4883 16.5921C11.4883 15.7643 11.4883 14.9467 11.4883 14.1178C12.2995 14.1178 13.0952 14.1178 13.9066 14.1178C13.9066 14.9352 13.9066 15.7527 13.9066 16.5807C14.7142 16.5807 15.5064 16.5807 16.311 16.5807C16.311 17.4086 16.311 18.226 16.311 19.0596C15.5195 19.0596 14.7237 19.0596 13.9071 19.0596ZM5.87902 15.8168H3.01453C2.72495 15.8168 2.49038 15.5758 2.49038 15.2783C2.49038 14.9808 2.72495 14.7398 3.01453 14.7398H5.81678C5.82596 15.0992 5.84626 15.4587 5.87902 15.8168ZM18.994 14.0802C18.9881 13.8716 18.975 13.6548 18.8787 13.4711C18.6363 13.0107 18.0223 12.9649 17.5106 12.9258C16.7178 12.8646 15.9349 12.6775 15.1971 12.3759C14.8355 12.2278 14.4843 12.0522 14.1488 11.8509C14.061 11.7984 13.9746 11.7452 13.8894 11.6894C13.5526 11.4686 13.2087 11.2128 12.809 11.194C12.6105 11.1852 12.4211 11.235 12.239 11.3144C12.0175 11.41 11.8065 11.548 11.6002 11.6752C11.1455 11.9552 10.6652 12.1922 10.1686 12.3867C9.74728 12.5516 9.31485 12.6862 8.87456 12.7859C8.4002 12.8935 7.92257 12.9528 7.43904 12.9905C7.06428 13.0194 6.70196 13.1621 6.53553 13.539C6.42743 13.7834 6.41498 14.06 6.40842 14.3286C6.40317 14.5494 6.40187 14.7715 6.40515 14.9936C6.40581 15.0697 6.40777 15.1451 6.40974 15.2212C6.4189 15.5806 6.43922 15.9401 6.47198 16.2981C6.63315 18.0651 7.09768 19.7963 8.0333 21.2805C8.03985 21.2913 8.0477 21.302 8.05426 21.3128C8.25672 21.6298 8.47816 21.9327 8.71665 22.2208C9.48979 23.1551 10.4411 23.9379 11.4731 24.5646C11.8629 24.8009 12.2907 25.023 12.7435 24.9981C13.1123 24.9772 13.4524 24.7941 13.7669 24.5983C15.49 23.524 16.8744 21.9146 17.7642 20.0662C18.6539 18.2178 19.0549 16.1379 18.994 14.0802ZM17.5585 18.2165C16.8069 20.6558 15.3485 22.5419 13.2165 23.8982C12.8627 24.1237 12.5849 24.1419 12.2245 23.9501C9.34303 22.4194 7.81249 19.9551 7.38204 16.7222C7.26018 15.8061 7.23528 14.886 7.29096 13.9012C8.46441 13.7538 9.59133 13.599 10.6567 13.1514C11.1723 12.9346 11.6663 12.6808 12.14 12.388C12.2377 12.3275 12.3353 12.2662 12.4309 12.2023C12.5076 12.1518 12.5797 12.1067 12.6543 12.0838C12.7513 12.0542 12.8516 12.0622 12.9695 12.1477C13.3502 12.4244 13.7439 12.6627 14.1488 12.8673C14.4902 13.0403 14.8401 13.1884 15.1971 13.3149C16.0522 13.6178 16.9504 13.7942 17.8834 13.8682C17.9535 13.8736 18.0223 13.8951 18.1455 13.9194C18.194 15.3888 17.9883 16.8218 17.5585 18.2165ZM9.67128 11.3682C9.67128 11.608 9.82399 11.8104 10.0349 11.8799C10.5092 11.6902 10.9682 11.462 11.4036 11.1938C11.61 11.0666 11.821 10.9286 12.0424 10.8331C12.0451 10.8319 12.0478 10.8308 12.0506 10.8297H10.1954C9.90583 10.8297 9.67128 11.0707 9.67128 11.3682ZM15.188 4.13089L15.1873 4.12955V4.12551C15.167 4.02455 15.1192 3.92963 15.0458 3.8529L11.4468 0.155497L11.4462 0.15484C11.3446 0.0525265 11.2103 -0.00132995 11.0747 2.49497e-05H0.524149C0.234574 2.49497e-05 0 0.241671 0 0.539187V21.3699C0 21.6674 0.234574 21.9084 0.524149 21.9084H7.88485C7.58323 21.4509 7.20252 20.8314 7.20252 20.8314H1.0483V1.07767H10.5545V4.23187C10.5545 4.52871 10.789 4.77035 11.0786 4.77035H14.1488V11.3695C14.4843 11.5708 14.8355 11.7465 15.1971 11.8945V4.23589C15.1978 4.20023 15.1939 4.16522 15.188 4.13089ZM11.6028 3.69336V1.83895L13.4078 3.69336H11.6028Z" fill="#109615"/>
</svg>
