<svg width="19" height="19" viewBox="0 0 19 19" fill="none" xmlns="http://www.w3.org/2000/svg">
<g id="Group">
<path id="Vector" d="M-0.000141144 8.71475C-0.000141144 8.63875 0.0251913 8.56275 0.0505247 8.48675C0.0758581 8.46142 0.101192 8.41075 0.126526 8.38542C0.151859 8.36009 0.151858 8.33475 0.177192 8.30942L3.39452 5.06675C3.62252 4.83875 3.97719 4.83875 4.20519 5.06675C4.43319 5.29475 4.43319 5.72542 4.20519 5.95342L1.95053 8.28409H13.1732C13.4772 8.28409 13.7559 8.53742 13.7559 8.86675C13.7559 9.17075 13.5025 9.44942 13.1732 9.44942H1.95053L4.20519 11.6534C4.43319 11.8814 4.43319 12.2108 4.20519 12.4388C3.97719 12.6668 3.62252 12.6414 3.39452 12.4134L0.151858 9.17075C0.126525 9.14542 0.101191 9.12009 0.101191 9.06942C0.0758572 9.04409 0.0505247 9.01875 0.0505247 8.96809C-0.000142097 8.86675 -0.000141144 8.79075 -0.000141144 8.71475Z" fill="#109615"/>
<path id="Vector_2" d="M7.54933 12.7173V17.176H17.86V1.14H7.54933V5.32H6.40933V1.14C6.40933 0.506667 6.89067 0 7.47333 0H17.936C18.5187 0 19 0.506667 19 1.14V17.176C19 17.8093 18.5187 18.316 17.936 18.316H7.47333C6.89067 18.316 6.40933 17.8093 6.40933 17.176V12.7173H7.54933Z" fill="#109615"/>
</g>
</svg>
